<mxfile host="app.diagrams.net" agent="Mozilla/5.0 (Windows NT 10.0; Win64; x64) AppleWebKit/537.36 (KHTML, like Gecko) Chrome/137.0.0.0 Safari/537.36 Edg/137.0.0.0" version="24.9.1">
  <diagram name="Seite-1" id="v38-Aa27aaraVS3fnahe">
    <mxGraphModel dx="1831" dy="807" grid="1" gridSize="10" guides="1" tooltips="1" connect="1" arrows="1" fold="1" page="1" pageScale="1" pageWidth="827" pageHeight="1169" math="0" shadow="0">
      <root>
        <mxCell id="0" />
        <mxCell id="1" parent="0" />
        <mxCell id="wmPQqVfjjBVrpNt7dZlr-10" value="Android Emulator&lt;div&gt;(Flutter App läuft)&lt;/div&gt;" style="swimlane;fontStyle=0;childLayout=stackLayout;horizontal=1;startSize=30;horizontalStack=0;resizeParent=1;resizeParentMax=0;resizeLast=0;collapsible=1;marginBottom=0;whiteSpace=wrap;html=1;" vertex="1" parent="1">
          <mxGeometry x="290" y="790" width="140" height="60" as="geometry" />
        </mxCell>
        <mxCell id="wmPQqVfjjBVrpNt7dZlr-11" value="Aufruf: http://10.0.2.2:3000/api&amp;nbsp;&amp;nbsp;" style="text;strokeColor=none;fillColor=none;align=left;verticalAlign=middle;spacingLeft=4;spacingRight=4;overflow=hidden;points=[[0,0.5],[1,0.5]];portConstraint=eastwest;rotatable=0;whiteSpace=wrap;html=1;" vertex="1" parent="wmPQqVfjjBVrpNt7dZlr-10">
          <mxGeometry y="30" width="140" height="30" as="geometry" />
        </mxCell>
        <mxCell id="wmPQqVfjjBVrpNt7dZlr-14" value="" style="endArrow=classic;html=1;rounded=0;" edge="1" parent="1">
          <mxGeometry width="50" height="50" relative="1" as="geometry">
            <mxPoint x="360" y="870" as="sourcePoint" />
            <mxPoint x="360" y="930" as="targetPoint" />
          </mxGeometry>
        </mxCell>
        <mxCell id="wmPQqVfjjBVrpNt7dZlr-16" value="HTTP Request" style="rounded=0;whiteSpace=wrap;html=1;" vertex="1" parent="1">
          <mxGeometry x="300" y="950" width="120" height="60" as="geometry" />
        </mxCell>
        <mxCell id="wmPQqVfjjBVrpNt7dZlr-18" value="Node.js REST API Server" style="swimlane;fontStyle=0;childLayout=stackLayout;horizontal=1;startSize=30;horizontalStack=0;resizeParent=1;resizeParentMax=0;resizeLast=0;collapsible=1;marginBottom=0;whiteSpace=wrap;html=1;" vertex="1" parent="1">
          <mxGeometry x="530" y="780" width="140" height="90" as="geometry" />
        </mxCell>
        <mxCell id="wmPQqVfjjBVrpNt7dZlr-19" value="Läuft auf: localhost:3000" style="text;strokeColor=none;fillColor=none;align=left;verticalAlign=middle;spacingLeft=4;spacingRight=4;overflow=hidden;points=[[0,0.5],[1,0.5]];portConstraint=eastwest;rotatable=0;whiteSpace=wrap;html=1;" vertex="1" parent="wmPQqVfjjBVrpNt7dZlr-18">
          <mxGeometry y="30" width="140" height="30" as="geometry" />
        </mxCell>
        <mxCell id="wmPQqVfjjBVrpNt7dZlr-20" value="DB: localhost:3306" style="text;strokeColor=none;fillColor=none;align=left;verticalAlign=middle;spacingLeft=4;spacingRight=4;overflow=hidden;points=[[0,0.5],[1,0.5]];portConstraint=eastwest;rotatable=0;whiteSpace=wrap;html=1;" vertex="1" parent="wmPQqVfjjBVrpNt7dZlr-18">
          <mxGeometry y="60" width="140" height="30" as="geometry" />
        </mxCell>
        <mxCell id="wmPQqVfjjBVrpNt7dZlr-22" value="" style="endArrow=classic;html=1;rounded=0;" edge="1" parent="1" target="wmPQqVfjjBVrpNt7dZlr-23">
          <mxGeometry width="50" height="50" relative="1" as="geometry">
            <mxPoint x="599.5" y="880" as="sourcePoint" />
            <mxPoint x="599.5" y="950" as="targetPoint" />
          </mxGeometry>
        </mxCell>
        <mxCell id="wmPQqVfjjBVrpNt7dZlr-23" value="MYSQL (XAMPP)" style="rounded=0;whiteSpace=wrap;html=1;" vertex="1" parent="1">
          <mxGeometry x="540" y="950" width="120" height="60" as="geometry" />
        </mxCell>
        <mxCell id="wmPQqVfjjBVrpNt7dZlr-24" value="MYSQL Datenbank" style="swimlane;fontStyle=0;childLayout=stackLayout;horizontal=1;startSize=30;horizontalStack=0;resizeParent=1;resizeParentMax=0;resizeLast=0;collapsible=1;marginBottom=0;whiteSpace=wrap;html=1;" vertex="1" parent="1">
          <mxGeometry x="320" y="350" width="190" height="170" as="geometry" />
        </mxCell>
        <mxCell id="wmPQqVfjjBVrpNt7dZlr-25" value="&amp;nbsp;&lt;div&gt;&lt;span style=&quot;background-color: initial;&quot;&gt;http://localhost/phpmyadmin&lt;/span&gt;&lt;/div&gt;" style="text;strokeColor=none;fillColor=none;align=left;verticalAlign=middle;spacingLeft=4;spacingRight=4;overflow=hidden;points=[[0,0.5],[1,0.5]];portConstraint=eastwest;rotatable=0;whiteSpace=wrap;html=1;" vertex="1" parent="wmPQqVfjjBVrpNt7dZlr-24">
          <mxGeometry y="30" width="190" height="30" as="geometry" />
        </mxCell>
        <mxCell id="wmPQqVfjjBVrpNt7dZlr-26" value="Datenbank:&amp;nbsp;gym_tracker_x&lt;div&gt;&lt;br&gt;&lt;/div&gt;&lt;div&gt;&lt;br&gt;&lt;/div&gt;&lt;div&gt;Port: 3306&lt;/div&gt;" style="text;strokeColor=none;fillColor=none;align=left;verticalAlign=middle;spacingLeft=4;spacingRight=4;overflow=hidden;points=[[0,0.5],[1,0.5]];portConstraint=eastwest;rotatable=0;whiteSpace=wrap;html=1;" vertex="1" parent="wmPQqVfjjBVrpNt7dZlr-24">
          <mxGeometry y="60" width="190" height="110" as="geometry" />
        </mxCell>
      </root>
    </mxGraphModel>
  </diagram>
</mxfile>
